<?xml version="1.0" encoding="UTF-8" standalone="no"?>
<svg
   xmlns:dc="http://purl.org/dc/elements/1.1/"
   xmlns:cc="http://creativecommons.org/ns#"
   xmlns:rdf="http://www.w3.org/1999/02/22-rdf-syntax-ns#"
   xmlns:svg="http://www.w3.org/2000/svg"
   xmlns="http://www.w3.org/2000/svg"
   xmlns:xlink="http://www.w3.org/1999/xlink"
   xmlns:sodipodi="http://sodipodi.sourceforge.net/DTD/sodipodi-0.dtd"
   xmlns:inkscape="http://www.inkscape.org/namespaces/inkscape"
   inkscape:export-ydpi="64.541031"
   inkscape:export-xdpi="64.541031"
   inkscape:export-filename="E:\Users\01\Desktop\moon-clock.png"
   width="512"
   height="512"
   viewBox="0 0 135.46666 135.46667"
   version="1.1"
   id="svg8"
   inkscape:version="1.0 (4035a4fb49, 2020-05-01)"
   sodipodi:docname="icon.svg">
  <style
     id="style970">
.measure-arrow
{
}
.measure-label
{

}
.measure-line
{
}</style>
  <defs
     id="defs2">
    <linearGradient
       id="linearGradient912"
       inkscape:collect="always">
      <stop
         id="stop908"
         offset="0"
         style="stop-color:#0c559c;stop-opacity:1" />
      <stop
         id="stop910"
         offset="1"
         style="stop-color:#002257;stop-opacity:1" />
    </linearGradient>
    <inkscape:path-effect
       effect="simplify"
       id="path-effect901"
       is_visible="true"
       lpeversion="1"
       steps="24"
       threshold="0.002"
       smooth_angles="60"
       helper_size="5"
       simplify_individual_paths="true"
       simplify_just_coalesce="false" />
    <inkscape:path-effect
       effect="fillet_chamfer"
       id="path-effect935"
       is_visible="true"
       lpeversion="1"
       satellites_param="F,0,0,1,0,4,0,1 @ F,0,0,1,0,4,0,1 @ F,0,0,1,0,4,0,1"
       unit="px"
       method="arc"
       mode="F"
       radius="4"
       chamfer_steps="1"
       flexible="false"
       use_knot_distance="true"
       apply_no_radius="true"
       apply_with_radius="true"
       only_selected="false"
       hide_knots="false" />
    <inkscape:path-effect
       effect="fillet_chamfer"
       id="path-effect914"
       is_visible="true"
       lpeversion="1"
       satellites_param="F,0,0,1,0,4,0,1 @ F,0,0,1,0,4,0,1 @ F,0,0,1,0,4,0,1 @ F,0,0,1,0,4,0,1 @ F,0,0,1,0,4,0,1 @ F,0,0,1,0,4,0,1"
       unit="px"
       method="auto"
       mode="F"
       radius="4"
       chamfer_steps="1"
       flexible="false"
       use_knot_distance="true"
       apply_no_radius="true"
       apply_with_radius="true"
       only_selected="false"
       hide_knots="false" />
    <inkscape:path-effect
       effect="fillet_chamfer"
       id="path-effect912"
       is_visible="true"
       lpeversion="1"
       satellites_param="F,0,0,1,0,0,0,1 @ F,0,0,1,0,0,0,1 @ F,0,0,1,0,0,0,1 @ F,0,0,1,0,0,0,1 @ F,0,0,1,0,0,0,1 @ F,0,0,1,0,0,0,1"
       unit="px"
       method="auto"
       mode="F"
       radius="4"
       chamfer_steps="1"
       flexible="false"
       use_knot_distance="true"
       apply_no_radius="true"
       apply_with_radius="true"
       only_selected="false"
       hide_knots="false" />
    <inkscape:path-effect
       effect="fillet_chamfer"
       id="path-effect885"
       is_visible="true"
       lpeversion="1"
       satellites_param="F,0,0,1,0,16,0,1 @ F,0,0,1,0,16,0,1 @ F,0,0,1,0,16,0,1"
       unit="px"
       method="arc"
       mode="F"
       radius="16"
       chamfer_steps="1"
       flexible="false"
       use_knot_distance="true"
       apply_no_radius="true"
       apply_with_radius="true"
       only_selected="false"
       hide_knots="false" />
    <inkscape:path-effect
       effect="join_type"
       id="path-effect883"
       is_visible="true"
       lpeversion="1"
       linecap_type="round"
       line_width="0.92"
       linejoin_type="round"
       miter_limit="100"
       attempt_force_join="true" />
    <inkscape:path-effect
       effect="join_type"
       id="path-effect880"
       is_visible="true"
       lpeversion="1"
       linecap_type="round"
       line_width="1.49"
       linejoin_type="round"
       miter_limit="100"
       attempt_force_join="true" />
    <inkscape:path-effect
       effect="simplify"
       id="path-effect873"
       is_visible="true"
       lpeversion="1"
       steps="2"
       threshold="0.002"
       smooth_angles="30"
       helper_size="5"
       simplify_individual_paths="false"
       simplify_just_coalesce="false" />
    <inkscape:path-effect
       spray_tool_friendly="true"
       fixed_displacement="true"
       shift_nodes="true"
       handles="along"
       global_randomize="1;1"
       displace_y="10;1"
       displace_x="10;1"
       segments="2"
       max_segment_size="0.617574"
       method="segments"
       lpeversion="1"
       is_visible="true"
       id="path-effect871"
       effect="roughen" />
    <inkscape:path-effect
       effect="roughen"
       id="path-effect850"
       is_visible="true"
       lpeversion="1"
       method="segments"
       max_segment_size="0.617574"
       segments="2"
       displace_x="10;1"
       displace_y="10;1"
       global_randomize="1;1"
       handles="along"
       shift_nodes="true"
       fixed_displacement="true"
       spray_tool_friendly="true" />
    <inkscape:path-effect
       simplify_just_coalesce="false"
       simplify_individual_paths="false"
       helper_size="5"
       smooth_angles="30"
       threshold="0.002"
       steps="2"
       lpeversion="1"
       is_visible="true"
       id="path-effect856"
       effect="simplify" />
    <inkscape:path-effect
       hide_knots="false"
       only_selected="false"
       apply_with_radius="true"
       apply_no_radius="true"
       use_knot_distance="true"
       flexible="false"
       chamfer_steps="10"
       radius="16"
       mode="F"
       method="arc"
       unit="px"
       satellites_param="F,0,0,1,0,16,0,10 @ F,0,0,1,0,16,0,10 @ F,0,0,1,0,16,0,10 @ F,0,0,1,0,16,0,10 @ F,0,0,1,0,16,0,10 @ F,0,0,1,0,16,0,10 @ F,0,0,1,0,16,0,10 @ F,0,0,1,0,16,0,10 @ F,0,0,1,0,16,0,10 @ F,0,0,1,0,16,0,10 @ F,0,0,1,0,16,0,10 @ F,0,0,1,0,16,0,10 @ F,0,0,1,0,16,0,10 @ F,0,0,1,0,16,0,10 @ F,0,0,1,0,16,0,10 @ F,0,0,1,0,16,0,10 @ F,0,0,1,0,16,0,10 @ F,0,0,1,0,16,0,10 @ F,0,0,1,0,16,0,10 @ F,0,0,1,0,16,0,10 @ F,0,0,1,0,16,0,10 @ F,0,0,1,0,16,0,10 @ F,0,0,1,0,16,0,10 @ F,0,0,1,0,16,0,10 @ F,0,0,1,0,16,0,10 @ F,0,0,1,0,16,0,10 @ F,0,0,1,0,16,0,10 @ F,0,0,1,0,16,0,10 @ F,0,0,1,0,16,0,10 @ F,0,0,1,0,16,0,10 @ F,0,0,1,0,16,0,10 @ F,0,0,1,0,16,0,10 @ F,0,0,1,0,16,0,10 @ F,0,0,1,0,16,0,10 @ F,0,0,1,0,16,0,10 @ F,0,0,1,0,16,0,10 @ F,0,0,1,0,16,0,10 @ F,0,0,1,0,16,0,10 @ F,0,0,1,0,16,0,10 @ F,0,0,1,0,16,0,10 @ F,0,0,1,0,16,0,10 @ F,0,0,1,0,16,0,10 @ F,0,0,1,0,16,0,10 @ F,0,0,1,0,16,0,10 @ F,0,0,1,0,16,0,10 @ F,0,0,1,0,16,0,10 @ F,0,0,1,0,16,0,10 @ F,0,0,1,0,16,0,10 @ F,0,0,1,0,16,0,10 @ F,0,0,1,0,16,0,10 @ F,0,0,1,0,16,0,10 @ F,0,0,1,0,16,0,10 @ F,0,0,1,0,16,0,10 @ F,0,0,1,0,16,0,10 @ F,0,0,1,0,16,0,10 @ F,0,0,1,0,16,0,10 @ F,0,0,1,0,16,0,10 @ F,0,0,1,0,16,0,10 @ F,0,0,1,0,16,0,10 @ F,0,0,1,0,16,0,10 @ F,0,0,1,0,16,0,10 @ F,0,0,1,0,16,0,10 @ F,0,0,1,0,16,0,10 @ F,0,0,1,0,16,0,10 @ F,0,0,1,0,16,0,10 @ F,0,0,1,0,16,0,10 @ F,0,0,1,0,16,0,10 @ F,0,0,1,0,16,0,10 @ F,0,0,1,0,16,0,10 @ F,0,0,1,0,16,0,10 @ F,0,0,1,0,16,0,10 @ F,0,0,1,0,16,0,10 @ F,0,0,1,0,16,0,10 @ F,0,0,1,0,16,0,10 @ F,0,0,1,0,16,0,10 @ F,0,0,1,0,16,0,10 @ F,0,0,1,0,16,0,10 @ F,0,0,1,0,16,0,10 @ F,0,0,1,0,16,0,10 @ F,0,0,1,0,16,0,10 @ F,0,0,1,0,16,0,10 @ F,0,0,1,0,16,0,10 @ F,0,0,1,0,16,0,10 @ F,0,0,1,0,16,0,10 @ F,0,0,1,0,16,0,10 @ F,0,0,1,0,16,0,10 @ F,0,0,1,0,16,0,10 @ F,0,0,1,0,16,0,10 @ F,0,0,1,0,16,0,10 @ F,0,0,1,0,16,0,10 @ F,0,0,1,0,16,0,10 @ F,0,0,1,0,16,0,10 @ F,0,0,1,0,16,0,10 @ F,0,0,1,0,16,0,10 @ F,0,0,1,0,16,0,10 @ F,0,0,1,0,16,0,10 @ F,0,0,1,0,16,0,10 @ F,0,0,1,0,16,0,10 @ F,0,0,1,0,16,0,10 @ F,0,0,1,0,16,0,10 @ F,0,0,1,0,16,0,10 @ F,0,0,1,0,16,0,10 @ F,0,0,1,0,16,0,10 @ F,0,0,1,0,16,0,10 @ F,0,0,1,0,16,0,10 @ F,0,0,1,0,16,0,10 @ F,0,0,1,0,16,0,10 @ F,0,0,1,0,16,0,10 @ F,0,0,1,0,16,0,10 @ F,0,0,1,0,16,0,10 @ F,0,0,1,0,16,0,10 @ F,0,0,1,0,16,0,10 @ F,0,0,1,0,16,0,10 @ F,0,0,1,0,16,0,10 @ F,0,0,1,0,16,0,10 @ F,0,0,1,0,16,0,10 @ F,0,0,1,0,16,0,10 @ F,0,0,1,0,16,0,10 @ F,0,0,1,0,16,0,10 @ F,0,0,1,0,16,0,10 @ F,0,0,1,0,16,0,10 @ F,0,0,1,0,16,0,10 @ F,0,0,1,0,16,0,10 @ F,0,0,1,0,16,0,10 @ F,0,0,1,0,16,0,10 @ F,0,0,1,0,16,0,10 @ F,0,0,1,0,16,0,10 @ F,0,0,1,0,16,0,10 @ F,0,0,1,0,16,0,10 @ F,0,0,1,0,16,0,10 @ F,0,0,1,0,16,0,10 @ F,0,0,1,0,16,0,10 @ F,0,0,1,0,16,0,10 @ F,0,0,1,0,16,0,10 @ F,0,0,1,0,16,0,10 @ F,0,0,1,0,16,0,10 @ F,0,0,1,0,16,0,10 @ F,0,0,1,0,16,0,10 @ F,0,0,1,0,16,0,10 @ F,0,0,1,0,16,0,10 @ F,0,0,1,0,16,0,10 @ F,0,0,1,0,16,0,10 @ F,0,0,1,0,16,0,10 @ F,0,0,1,0,16,0,10 @ F,0,0,1,0,16,0,10 @ F,0,0,1,0,16,0,10 @ F,0,0,1,0,16,0,10 @ F,0,0,1,0,16,0,10 @ F,0,0,1,0,16,0,10 @ F,0,0,1,0,16,0,10 @ F,0,0,1,0,16,0,10 @ F,0,0,1,0,16,0,10 @ F,0,0,1,0,16,0,10 @ F,0,0,1,0,16,0,10 @ F,0,0,1,0,16,0,10 @ F,0,0,1,0,16,0,10 @ F,0,0,1,0,16,0,10 @ F,0,0,1,0,16,0,10"
       lpeversion="1"
       is_visible="false"
       id="path-effect854"
       effect="fillet_chamfer" />
    <inkscape:path-effect
       spray_tool_friendly="true"
       fixed_displacement="true"
       shift_nodes="true"
       handles="along"
       global_randomize="1;1"
       displace_y="10;1"
       displace_x="10;1"
       segments="2"
       max_segment_size="3"
       method="segments"
       lpeversion="1"
       is_visible="true"
       id="path-effect852"
       effect="roughen" />
    <inkscape:path-effect
       effect="measure_segments"
       id="path-effect968"
       is_visible="false"
       lpeversion="1"
       unit="mm"
       orientation="parallel"
       coloropacity="#000000ff"
       fontbutton="Sans 10"
       precision="2"
       fix_overlaps="0"
       position="5"
       text_top_bottom="0"
       helpline_distance="0"
       helpline_overlap="2"
       line_width="0.25"
       scale="1"
       format="{measure}{unit}"
       blacklist=""
       active_projection="false"
       whitelist="false"
       showindex="false"
       arrows_outside="false"
       flip_side="false"
       scale_sensitive="true"
       local_locale="true"
       rotate_anotation="true"
       hide_back="true"
       hide_arrows="false"
       smallx100="false"
       linked_items=""
       distance_projection="20"
       angle_projection="0"
       avoid_overlapping="true"
       onbbox="false"
       bboxonly="false"
       centers="false"
       maxmin="false"
       helpdata="&lt;b&gt;&lt;big&gt;General&lt;/big&gt;&lt;/b&gt; Display and position dimension lines and labels  &lt;b&gt;&lt;big&gt;Projection&lt;/big&gt;&lt;/b&gt; Show a line with measurements based on the selected items  &lt;b&gt;&lt;big&gt;Options&lt;/big&gt;&lt;/b&gt; Options for color, precision, label formatting and display  &lt;b&gt;&lt;big&gt;Tips&lt;/big&gt;&lt;/b&gt; &lt;b&gt;&lt;i&gt;Custom styling:&lt;/i&gt;&lt;/b&gt; To further customize the styles, use the XML editor to find out the class or ID, then use the Style dialog to apply a new style. &lt;b&gt;&lt;i&gt;Blacklists:&lt;/i&gt;&lt;/b&gt; allow to hide some segments or projection steps. &lt;b&gt;&lt;i&gt;Multiple Measure LPEs:&lt;/i&gt;&lt;/b&gt; In the same object, in conjunction with blacklists,this allows for labels and measurements with different orientations or additional projections. &lt;b&gt;&lt;i&gt;Set Defaults:&lt;/i&gt;&lt;/b&gt; For every LPE, default values can be set at the bottom." />
    <inkscape:path-effect
       effect="simplify"
       id="path-effect966"
       is_visible="true"
       lpeversion="1"
       steps="6"
       threshold="0.007"
       smooth_angles="10"
       helper_size="5"
       simplify_individual_paths="false"
       simplify_just_coalesce="false" />
    <inkscape:path-effect
       hide_knots="false"
       only_selected="false"
       apply_with_radius="true"
       apply_no_radius="true"
       use_knot_distance="true"
       flexible="false"
       chamfer_steps="1"
       radius="0"
       mode="F"
       method="auto"
       unit="px"
       satellites_param="F,0,0,1,0,0,0,1 @ F,0,0,1,0,0,0,1 @ F,0,0,1,0,0,0,1 @ F,0,0,1,0,0,0,1 @ F,0,0,1,0,0,0,1 @ F,0,0,1,0,0,0,1 @ F,0,0,1,0,0,0,1 @ F,0,0,1,0,0,0,1 @ F,0,0,1,0,0,0,1 @ F,0,0,1,0,0,0,1 @ F,0,0,1,0,0,0,1 @ F,0,0,1,0,0,0,1 @ F,0,0,1,0,0,0,1 @ F,0,0,1,0,0,0,1 @ F,0,0,1,0,0,0,1 @ F,0,0,1,0,0,0,1 @ F,0,0,1,0,0,0,1 @ F,0,0,1,0,0,0,1 @ F,0,0,1,0,0,0,1 @ F,0,0,1,0,0,0,1 @ F,0,0,1,0,0,0,1 @ F,0,0,1,0,0,0,1 @ F,0,0,1,0,0,0,1 @ F,0,0,1,0,0,0,1 @ F,0,0,1,0,0,0,1 @ F,0,0,1,0,0,0,1 @ F,0,0,1,0,0,0,1 @ F,0,0,1,0,0,0,1 @ F,0,0,1,0,0,0,1 @ F,0,0,1,0,0,0,1 @ F,0,0,1,0,0,0,1 @ F,0,0,1,0,0,0,1 @ F,0,0,1,0,0,0,1 @ F,0,0,1,0,0,0,1 @ F,0,0,1,0,0,0,1 @ F,0,0,1,0,0,0,1 @ F,0,0,1,0,0,0,1 @ F,0,0,1,0,0,0,1 @ F,0,0,1,0,0,0,1 @ F,0,0,1,0,0,0,1 @ F,0,0,1,0,0,0,1 @ F,0,0,1,0,0,0,1 @ F,0,0,1,0,0,0,1 @ F,0,0,1,0,0,0,1 @ F,0,0,1,0,0,0,1 @ F,0,0,1,0,0,0,1 @ F,0,0,1,0,0,0,1 @ F,0,0,1,0,0,0,1"
       lpeversion="1"
       is_visible="true"
       id="path-effect851"
       effect="fillet_chamfer" />
    <filter
       y="-0.23000000000000009"
       x="-0.23000000000000009"
       height="3"
       width="3"
       id="filter1674"
       inkscape:label="Drop Shadow"
       style="color-interpolation-filters:sRGB;">
      <feFlood
         id="feFlood1664"
         result="flood"
         flood-color="rgb(234,234,234)"
         flood-opacity="0.498039" />
      <feComposite
         id="feComposite1666"
         result="composite1"
         operator="in"
         in2="SourceGraphic"
         in="flood" />
      <feGaussianBlur
         id="feGaussianBlur1668"
         result="blur"
         stdDeviation="16"
         in="composite1" />
      <feOffset
         id="feOffset1670"
         result="offset"
         dy="0"
         dx="1.38778e-16" />
      <feComposite
         id="feComposite1672"
         result="composite2"
         operator="over"
         in2="offset"
         in="SourceGraphic" />
    </filter>
    <filter
       id="filter1686"
       inkscape:label="Drop Shadow"
       style="color-interpolation-filters:sRGB;">
      <feFlood
         id="feFlood1676"
         result="flood"
         flood-color="rgb(234,234,234)"
         flood-opacity="0.498039" />
      <feComposite
         id="feComposite1678"
         result="composite1"
         operator="in"
         in2="SourceGraphic"
         in="flood" />
      <feGaussianBlur
         id="feGaussianBlur1680"
         result="blur"
         stdDeviation="8"
         in="composite1" />
      <feOffset
         id="feOffset1682"
         result="offset"
         dy="0"
         dx="1.38778e-16" />
      <feComposite
         id="feComposite1684"
         result="composite2"
         operator="over"
         in2="offset"
         in="SourceGraphic" />
    </filter>
    <filter
       y="-3.1000000000000001"
       x="-3.1000000000000001"
       height="7.21"
       width="7.2000000000000002"
       id="filter879"
       inkscape:label="Drop Shadow"
       style="color-interpolation-filters:sRGB;">
      <feFlood
         id="feFlood869"
         result="flood"
         flood-color="rgb(255,255,0)"
         flood-opacity="1" />
      <feComposite
         id="feComposite871"
         result="composite1"
         operator="in"
         in2="SourceGraphic"
         in="flood" />
      <feGaussianBlur
         id="feGaussianBlur873"
         result="blur"
         stdDeviation="8"
         in="composite1" />
      <feOffset
         id="feOffset875"
         result="offset"
         dy="0"
         dx="1.38778e-16" />
      <feComposite
         id="feComposite877"
         result="composite2"
         operator="over"
         in2="offset"
         in="SourceGraphic" />
    </filter>
    <radialGradient
       gradientTransform="matrix(2.959408e-8,1.6612488,-1.6590449,0,66.869048,84.413504)"
       gradientUnits="userSpaceOnUse"
       r="100.74831"
       fy="48.687542"
       fx="-20.898924"
       cy="48.687542"
       cx="-20.898924"
       id="radialGradient916"
       xlink:href="#linearGradient912"
       inkscape:collect="always" />
  </defs>
  <sodipodi:namedview
     inkscape:snap-global="true"
     id="base"
     pagecolor="#ffffff"
     bordercolor="#666666"
     borderopacity="1.0"
     inkscape:pageopacity="0.0"
     inkscape:pageshadow="2"
     inkscape:zoom="0.55154332"
     inkscape:cx="-150.29017"
     inkscape:cy="472.7531"
     inkscape:document-units="px"
     inkscape:current-layer="layer1"
     inkscape:document-rotation="0"
     showgrid="false"
     showborder="false"
     units="px"
     inkscape:window-width="1920"
     inkscape:window-height="1017"
     inkscape:window-x="-8"
     inkscape:window-y="-8"
     inkscape:window-maximized="1"
     inkscape:snap-bbox="true"
     inkscape:snap-bbox-midpoints="true"
     inkscape:snap-object-midpoints="true"
     inkscape:snap-bbox-edge-midpoints="true"
     inkscape:bbox-nodes="true"
     inkscape:snap-center="true"
     inkscape:bbox-paths="true"
     inkscape:snap-intersection-paths="true"
     inkscape:object-paths="true"
     inkscape:snap-smooth-nodes="true"
     inkscape:snap-midpoints="true"
     inkscape:snap-nodes="false" />
  <metadata
     id="metadata5">
    <rdf:RDF>
      <cc:Work
         rdf:about="">
        <dc:format>image/svg+xml</dc:format>
        <dc:type
           rdf:resource="http://purl.org/dc/dcmitype/StillImage" />
        <dc:title />
      </cc:Work>
    </rdf:RDF>
  </metadata>
  <g
     inkscape:label="Layer 1"
     inkscape:groupmode="layer"
     id="layer1">
    <rect
       style="opacity:0.999;fill:url(#radialGradient916);fill-opacity:1;stroke:none;stroke-width:1.70339"
       id="rect972"
       width="201.49661"
       height="201.49661"
       x="-47.829819"
       y="16.449554" />
    <g
       id="g896">
      <path
         transform="matrix(0.41708479,0,0,0.41708479,-36.03465,1.4347784)"
         id="ellipse1496"
         style="fill:#eaeaea;fill-opacity:1;stroke:#cacaca;stroke-width:0.135797;stroke-opacity:1;filter:url(#filter1686)"
         d="M 120.58392,117.19786 A 67.665428,67.665436 0 0 1 52.918488,184.8633 67.665428,67.665436 0 0 1 -14.746941,117.19786 67.665428,67.665436 0 0 1 52.918488,49.532425 67.665428,67.665436 0 0 1 120.58392,117.19786" />
      <path
         d="m -13.33453,25.781848 c 0.28073,0.867977 0.57976,1.75541 1.14731,2.483939 0.2127,0.581151 0.93498,0.448842 1.42832,0.594743 0.74099,0.134726 1.48197,0.269451 2.22296,0.404176 -0.0435,0.418739 0.37248,1.592301 -0.4504,1.21082 -1.24302,-0.429405 -2.48603,-0.85881 -3.72905,-1.288216 -0.56757,0.154794 -1.13515,0.309588 -1.70272,0.464382 -0.69124,-0.539249 -1.43075,-1.290724 -2.39728,-1.020429 -0.64575,0.171869 -1.13375,-0.562028 -1.5568,-0.611976 -0.27206,0.650204 -0.75251,1.257372 -1.5412,0.987254 -1.37094,-0.0171 -2.74011,-0.125088 -4.11166,-0.09948 -1.00137,0.36464 -1.83563,1.214144 -2.95169,1.22916 -0.64975,0.189497 -2.17469,0.395221 -2.19015,-0.454906 0.326,-0.850272 1.27423,-1.079011 2.07124,-1.240396 0.93394,-0.253057 1.96751,-0.172784 2.80681,-0.719577 0.55425,-0.330417 1.18341,-0.566417 1.83612,-0.48359 0.96813,0.06131 1.96646,0.114482 2.808,-0.449279 1.1297,-0.38091 2.34039,-0.397856 3.48761,-0.71153 0.80621,0.112724 1.13749,-1.096327 1.90254,-0.672864 0.29258,0.155958 0.61486,0.248971 0.92004,0.377765 z"
         style="fill:#c5c5c5;fill-opacity:1;stroke:none;stroke-width:0.296285px;stroke-linecap:butt;stroke-linejoin:miter;stroke-opacity:1"
         id="path1470" />
      <path
         d="m 2.63594,34.977016 c 0.19322,-0.373259 0.59404,-0.618239 1.01285,-0.633509 0.62635,-0.02973 1.2632,0.28271 1.6173,0.801167 0.23335,0.334421 0.27481,0.789922 0.0952,1.157056 -0.13724,0.322641 -0.38946,0.596941 -0.71423,0.73628 -0.60519,0.264973 -1.34198,0.173661 -1.88439,-0.195164 -0.36787,-0.243991 -0.61551,-0.677503 -0.58283,-1.12418 0.004,-0.306002 0.16738,-0.616544 0.45611,-0.74165 z"
         style="fill:#c5c5c5;fill-opacity:1;stroke:none;stroke-width:0.110354px;stroke-linecap:butt;stroke-linejoin:miter;stroke-opacity:1"
         id="path1537" />
      <path
         d="m -13.11945,31.464343 c -2.53852,0.05555 -4.3297,3.345941 -6.72144,2.467871 -2.22623,-1.381253 -4.94038,-2.905434 -7.56958,-1.619311 -1.71192,1.637928 -4.63422,1.952062 -5.459486,4.321683 -0.06698,1.310897 -1.624493,4.913721 -2.861652,2.677154 -0.251464,-2.584666 1.980437,-4.161725 3.692538,-5.66123 1.53488,-1.245587 -0.17204,-1.752759 -1.129617,-0.586685 -0.912867,1.153108 -2.336887,1.452931 -3.411696,2.128835 l -0.556942,0.03448 -0.237519,0.0569 -0.304335,0.08557 -0.285367,0.100008 a 28.22222,28.222224 0 0 0 -4.220382,14.709803 l 0.289247,0.187513 0.107552,0.188163 0.0403,0.215103 0.120915,0.20174 0.134493,0.174583 0.05496,0.02415 c 0.09045,0.647215 0.225678,1.293209 0.414041,1.936145 0.743835,2.392561 1.987269,4.581038 3.071368,6.82749 1.59653,1.540261 3.945968,3.512638 6.252652,2.229485 1.55755,-1.880251 3.97779,1.602127 1.97559,2.700649 -0.38725,3.186882 3.58209,4.03057 5.87612,2.895924 2.53808,-0.873509 4.56298,-2.734641 6.89775,-4.003125 2.05188,-0.984867 1.16443,-2.953832 -0.26899,-3.896002 -0.16628,-1.602803 0.0726,-3.650806 -1.95878,-3.836513 -1.52208,-1.067224 -3.38755,-3.99631 -0.29571,-4.276854 1.56802,-0.217389 4.78444,-2.634975 1.62987,-3.193143 -3.23098,-0.02844 -1.32513,-4.52612 1.20463,-2.845919 1.95791,1.18772 3.18572,-0.368653 3.72572,-2.089391 2.15325,-1.383528 3.04858,2.02531 3.79018,3.496614 1.30613,0.742561 3.48825,0.06006 4.11154,2.145 1.40884,2.066505 2.7783,5.320997 5.68968,5.251285 2.67579,-1.724236 0.0734,-4.75228 -2.16397,-5.367026 -1.97643,-0.84546 -2.41964,-5.050701 0.49659,-4.292586 2.43372,1.345261 3.85564,3.935599 5.02972,6.367754 0.14553,3.275742 4.48642,0.7525 3.41967,-1.636553 0.26222,-2.673714 -0.26066,-5.838766 -2.90196,-7.167818 -2.18211,-2.091504 -5.6124,-2.031285 -7.46008,-4.4898 -1.38959,-2.56403 -4.80574,0.816579 -5.48104,-2.326695 -0.66108,-1.905289 -2.59414,-2.673128 -3.92338,-4.04041 -0.28009,-0.07168 -0.55061,-0.100582 -0.81321,-0.09484 z"
         style="fill:#cacaca;fill-opacity:1;stroke:none;stroke-width:0.0566389;stroke-opacity:0.666667"
         id="path833" />
    </g>
    <path
       id="rect874"
       style="opacity:0.999;fill:#111111;fill-opacity:1;stroke:none;stroke-width:1.0557;stroke-opacity:1"
       d="m -13.321417,155.44817 v 24.00319 l -33.536972,38.49481 h 32.762857 a 10.400745,10.400745 0 0 1 0.01705,-0.0858 10.400745,10.400745 0 0 1 0.02842,-0.13642 10.400745,10.400745 0 0 1 0.03049,-0.13643 10.400745,10.400745 0 0 1 0.03256,-0.13539 10.400745,10.400745 0 0 1 0.03411,-0.13539 10.400745,10.400745 0 0 1 0.03565,-0.13488 10.400745,10.400745 0 0 1 0.03772,-0.13436 10.400745,10.400745 0 0 1 0.03927,-0.13384 10.400745,10.400745 0 0 1 0.04134,-0.13333 10.400745,10.400745 0 0 1 0.04289,-0.13229 10.400745,10.400745 0 0 1 0.04496,-0.13229 10.400745,10.400745 0 0 1 0.04651,-0.13126 10.400745,10.400745 0 0 1 0.04857,-0.13125 10.400745,10.400745 0 0 1 0.04961,-0.13023 10.400745,10.400745 0 0 1 0.0522,-0.12919 10.400745,10.400745 0 0 1 0.05323,-0.12867 10.400745,10.400745 0 0 1 0.0553,-0.12816 10.400745,10.400745 0 0 1 0.01602,-0.0362 l 9.9249758,-22.34541 a 7.1064418,7.1064418 0 0 1 0.04754,-0.10542 7.1064418,7.1064418 0 0 1 0.04961,-0.10387 7.1064418,7.1064418 0 0 1 0.05064,-0.10335 7.1064418,7.1064418 0 0 1 0.05271,-0.10284 7.1064418,7.1064418 0 0 1 0.05478,-0.1018 7.1064418,7.1064418 0 0 1 0.05581,-0.10077 7.1064418,7.1064418 0 0 1 0.05788,-0.0997 7.1064418,7.1064418 0 0 1 0.05891,-0.0987 7.1064418,7.1064418 0 0 1 0.06098,-0.0982 7.1064418,7.1064418 0 0 1 0.06253,-0.0966 7.1064418,7.1064418 0 0 1 0.06408,-0.0961 7.1064418,7.1064418 0 0 1 0.06511,-0.0951 7.1064418,7.1064418 0 0 1 0.06718,-0.0935 7.1064418,7.1064418 0 0 1 0.06873,-0.0925 7.1064418,7.1064418 0 0 1 0.07028,-0.092 7.1064418,7.1064418 0 0 1 0.07132,-0.0904 7.1064418,7.1064418 0 0 1 0.07286,-0.0889 7.1064418,7.1064418 0 0 1 0.07441,-0.0884 7.1064418,7.1064418 0 0 1 0.07596,-0.0868 7.1064418,7.1064418 0 0 1 0.07752,-0.0853 7.1064418,7.1064418 0 0 1 0.07855,-0.0842 7.1064418,7.1064418 0 0 1 0.0801,-0.0832 7.1064418,7.1064418 0 0 1 0.08113,-0.0816 7.1064418,7.1064418 0 0 1 0.08268,-0.0806 7.1064418,7.1064418 0 0 1 0.08372,-0.0791 7.1064418,7.1064418 0 0 1 0.08527,-0.0775 7.1064418,7.1064418 0 0 1 0.08682,-0.0765 7.1064418,7.1064418 0 0 1 0.08733,-0.0749 7.1064418,7.1064418 0 0 1 0.08888,-0.0734 7.1064418,7.1064418 0 0 1 0.09043,-0.0718 7.1064418,7.1064418 0 0 1 0.09095,-0.0703 7.1064418,7.1064418 0 0 1 0.0925,-0.0693 7.1064418,7.1064418 0 0 1 0.09354,-0.0677 7.1064418,7.1064418 0 0 1 0.09457,-0.0656 7.1064418,7.1064418 0 0 1 0.0956,-0.0646 7.1064418,7.1064418 0 0 1 0.09663,-0.0631 7.1064418,7.1064418 0 0 1 0.09767,-0.061 7.1064418,7.1064418 0 0 1 0.0987,-0.0599 7.1064418,7.1064418 0 0 1 0.09974,-0.0579 7.1064418,7.1064418 0 0 1 0.100253,-0.0568 7.1064418,7.1064418 0 0 1 0.101285,-0.0548 7.1064418,7.1064418 0 0 1 0.10232,-0.0532 7.1064418,7.1064418 0 0 1 0.103354,-0.0512 7.1064418,7.1064418 0 0 1 0.103867,-0.0501 7.1064418,7.1064418 0 0 1 0.104905,-0.0481 7.1064418,7.1064418 0 0 1 0.105421,-0.0465 7.1064418,7.1064418 0 0 1 0.106452,-0.0444 7.1064418,7.1064418 0 0 1 0.106971,-0.0434 7.1064418,7.1064418 0 0 1 0.107487,-0.0408 7.1064418,7.1064418 0 0 1 0.108519,-0.0398 7.1064418,7.1064418 0 0 1 0.109037,-0.0377 7.1064418,7.1064418 0 0 1 0.109554,-0.0357 7.1064418,7.1064418 0 0 1 0.110072,-0.0346 7.1064418,7.1064418 0 0 1 0.11058795,-0.032 7.1064418,7.1064418 0 0 1 0.111103,-0.0305 7.1064418,7.1064418 0 0 1 0.111623,-0.0289 7.1064418,7.1064418 0 0 1 0.112136,-0.0269 7.1064418,7.1064418 0 0 1 0.01137,-0.003 h 3.1894697 a 7.1064418,7.1064418 0 0 1 0.112138,0.0269 7.1064418,7.1064418 0 0 1 0.11162,0.0284 7.1064418,7.1064418 0 0 1 0.111104,0.0305 7.1064418,7.1064418 0 0 1 0.111106,0.032 7.1064418,7.1064418 0 0 1 0.110069,0.0341 7.1064418,7.1064418 0 0 1 0.109554,0.0357 7.1064418,7.1064418 0 0 1 0.109037,0.0377 7.1064418,7.1064418 0 0 1 0.108522,0.0393 7.1064418,7.1064418 0 0 1 0.107487,0.0408 7.1064418,7.1064418 0 0 1 0.106971,0.0429 7.1064418,7.1064418 0 0 1 0.106452,0.0444 7.1064418,7.1064418 0 0 1 0.105937,0.0465 7.1064418,7.1064418 0 0 1 0.104386,0.0481 7.1064418,7.1064418 0 0 1 0.104386,0.0496 7.1064418,7.1064418 0 0 1 0.103354,0.0512 7.1064418,7.1064418 0 0 1 0.10232,0.0532 7.1064418,7.1064418 0 0 1 0.101285,0.0548 7.1064418,7.1064418 0 0 1 0.100769,0.0563 7.1064418,7.1064418 0 0 1 0.09974,0.0579 7.1064418,7.1064418 0 0 1 0.0987,0.0594 7.1064418,7.1064418 0 0 1 0.09767,0.061 7.1064418,7.1064418 0 0 1 0.09663,0.0631 7.1064418,7.1064418 0 0 1 0.0956,0.0641 7.1064418,7.1064418 0 0 1 0.09509,0.0661 7.1064418,7.1064418 0 0 1 0.09353,0.0672 7.1064418,7.1064418 0 0 1 0.0925,0.0687 7.1064418,7.1064418 0 0 1 0.09095,0.0703 7.1064418,7.1064418 0 0 1 0.09043,0.0718 7.1064418,7.1064418 0 0 1 0.08889,0.0734 7.1064418,7.1064418 0 0 1 0.08785,0.0749 7.1064418,7.1064418 0 0 1 0.08682,0.076 7.1064418,7.1064418 0 0 1 0.08527,0.0775 7.1064418,7.1064418 0 0 1 0.08423,0.0791 7.1064418,7.1064418 0 0 1 0.08268,0.0801 7.1064418,7.1064418 0 0 1 0.08113,0.0816 7.1064418,7.1064418 0 0 1 0.08062,0.0832 7.1064418,7.1064418 0 0 1 0.07855,0.0837 7.1064418,7.1064418 0 0 1 0.07752,0.0858 7.1064418,7.1064418 0 0 1 0.07596,0.0868 7.1064418,7.1064418 0 0 1 0.07441,0.0879 7.1064418,7.1064418 0 0 1 0.07338,0.0889 7.1064418,7.1064418 0 0 1 0.07183,0.0904 7.1064418,7.1064418 0 0 1 0.06976,0.0915 7.1064418,7.1064418 0 0 1 0.06873,0.0925 7.1064418,7.1064418 0 0 1 0.06718,0.0935 7.1064418,7.1064418 0 0 1 0.06615,0.0951 7.1064418,7.1064418 0 0 1 0.06408,0.0956 7.1064418,7.1064418 0 0 1 0.06253,0.0971 7.1064418,7.1064418 0 0 1 0.06098,0.0977 7.1064418,7.1064418 0 0 1 0.05943,0.0987 7.1064418,7.1064418 0 0 1 0.05788,0.0997 7.1064418,7.1064418 0 0 1 0.05581,0.10077 7.1064418,7.1064418 0 0 1 0.05478,0.1018 7.1064418,7.1064418 0 0 1 0.05271,0.10232 7.1064418,7.1064418 0 0 1 0.05116,0.10335 7.1064418,7.1064418 0 0 1 0.04961,0.10387 7.1064418,7.1064418 0 0 1 0.04806,0.10491 7.1064418,7.1064418 0 0 1 0.0047,0.0109 l 9.9244605,22.34541 a 10.400741,10.400741 0 0 1 0.05581,0.12764 10.400741,10.400741 0 0 1 0.05426,0.12867 10.400741,10.400741 0 0 1 0.05219,0.12919 10.400741,10.400741 0 0 1 0.05064,0.13023 10.400741,10.400741 0 0 1 0.04858,0.13022 10.400741,10.400741 0 0 1 0.04754,0.13178 10.400741,10.400741 0 0 1 0.04496,0.13177 10.400741,10.400741 0 0 1 0.04341,0.13229 10.400741,10.400741 0 0 1 0.04186,0.13333 10.400741,10.400741 0 0 1 0.04031,0.13384 10.400741,10.400741 0 0 1 0.03772,0.13384 10.400741,10.400741 0 0 1 0.03669,0.13488 10.400741,10.400741 0 0 1 0.03462,0.13487 10.400741,10.400741 0 0 1 0.03256,0.13591 10.400741,10.400741 0 0 1 0.03101,0.13591 10.400741,10.400741 0 0 1 0.02894,0.13643 10.400741,10.400741 0 0 1 0.02481,0.12454 h 32.76331 L 19.381495,179.45136 v -24.00319 z" />
    <path
       id="path901"
       style="opacity:0.999;fill:#111111;fill-opacity:1;stroke:none;stroke-width:0.477017;stroke-opacity:1"
       inkscape:transform-center-x="-4.3444496e-06"
       inkscape:transform-center-y="-90.566135"
       d="m 76.829474,65.546464 a 0.10233423,1.2176942 0 0 0 -0.0865,0.608915 l -1.46158,30.124332 -7.4439,13.341159 a 1.606868,2.0698469 0 0 1 -1.30469,0.86182 h -2.05982 a 0.34128199,0.43961387 0 0 0 -0.24139,0.75039 l 7.19087,9.26324 -1.18199,97.44985 h 13.18284 l -1.18198,-97.45038 7.19046,-9.26271 a 0.34128199,0.43961387 0 0 0 -0.24098,-0.75039 h -2.05982 a 1.606868,2.0698469 0 0 1 -1.3051,-0.86182 l -7.4439,-13.341159 -1.46159,-30.124332 a 0.10233423,1.2176942 0 0 0 -0.0909,-0.608915 z" />
    <g
       id="g892"
       transform="translate(2.8837144)">
      <path
         d="m 134.86106,119.46226 v 16.40416 h -2.11667 v 7.9375 h -4.23333 v 16.87494 h -3.76308 v 57.26731 h 24.45949 v -57.26731 h -3.76308 v -16.87494 h -4.23333 v -7.9375 h -2.11667 v -16.40416 z"
         style="opacity:0.999;fill:#111111;fill-opacity:1;stroke:none;stroke-width:0.940694"
         id="rect870" />
      <path
         d="m 124.74808,168.18416 h 6.35 v 8.46666 h -6.35 z"
         style="opacity:0.993;fill:#ffff00;fill-opacity:1;stroke:none;stroke-width:0.159052;stroke-opacity:1;filter:url(#filter879)"
         id="rect939" />
    </g>
    <path
       d="m 107.27971,184.0795 v 11.28889 H 97.183794 v -5.64444 H 86.927631 v 16.93333 h -10.09593 v 11.28889 h 10.09593 0.1602 9.935643 0.1602 10.095916 10.25616 10.09594 V 201.01284 H 117.53575 V 184.0795 Z"
       style="opacity:0.988;fill:#111111;fill-opacity:1;stroke-width:0.18424"
       id="rect984" />
    <rect
       style="opacity:0.988;fill:#111111;stroke-width:0.741527"
       id="rect876"
       width="8.4666662"
       height="25.4"
       x="64.131699"
       y="192.54617" />
    <rect
       style="opacity:0.998;fill:#111111;fill-opacity:0.960784;stroke-width:0.673673"
       id="rect894"
       width="16.933332"
       height="16.933332"
       x="47.198364"
       y="201.01285" />
  </g>
</svg>
